<svg xmlns="http://www.w3.org/2000/svg" width="778" height="406" fill="none" viewBox="0 0 778 406"><path fill="#0f1116" d="M778 406H0V0h778zM346 223.826V226h84.275l.843-2.174zm34.59-34.722 4.546 8.972-8.082 15.947-7.016-24.752h-3.536l9.653 33.958 10.862-21.44 10.86 21.44 8.728-30.703h5.527l-.094-.091.094.036h6.006c2.357 0 3.984.224 4.995.617 1.01.449 1.797 1.066 2.414 2.02.617.898.897 1.966.897 3.088 0 1.179-.28 2.245-.897 3.2-.618.954-1.46 1.627-2.526 2.076-1.123.449-2.807.674-5.052.674l-5.837-.056 14.2 19.083h4.21l-12.181-15.772c2.807-.056 5.053-.392 6.68-1.122 1.572-.729 2.862-1.797 3.704-3.2s1.291-3.031 1.291-4.883c0-2.244-.674-4.097-1.908-5.612-1.291-1.515-2.919-2.526-4.94-2.976-1.347-.28-3.928-.448-7.689-.448h-6.735v.056h-3.649v.055h-1.064l-7.072 24.753-8.064-15.983 4.527-8.937h-3.76l-2.644 5.216-2.632-5.216zM346 183.622v4.347h10.854v35.134h4.072v-35.134h64.034l-2.903-4.347zm0-3.622v2.173h76.027l.76-2.173z"/></svg>